<svg height="auto" viewBox="0 0 2000 1000" xmlns="http://www.w3.org/2000/svg"><path d="M0 1000h80M100 1000h80v-24.127q0-4-4-4h-72q-4 0-4 4ZM200 1000h80v-64.406q0-4-4-4h-72q-4 0-4 4ZM300 1000h80V897.457q0-4-4-4h-72q-4 0-4 4ZM400 1000h80V797.223q0-4-4-4h-72q-4 0-4 4ZM500 1000h80V850.802q0-4-4-4h-72q-4 0-4 4ZM600 1000h80V765.89q0-4-4-4h-72q-4 0-4 4ZM700 1000h80V782.298q0-4-4-4h-72q-4 0-4 4ZM800 1000h80V608.772q0-4-4-4h-72q-4 0-4 4ZM900 1000h80V684.399q0-4-4-4h-72q-4 0-4 4ZM1000 1000h80V513.821q0-4-4-4h-72q-4 0-4 4ZM1100 1000h80V634.758q0-4-4-4h-72q-4 0-4 4ZM1200 1000h80V609.72q0-4-4-4h-72q-4 0-4 4ZM1300 1000h80V648.587q0-4-4-4h-72q-4 0-4 4ZM1400 1000h80V433.196q0-4-4-4h-72q-4 0-4 4ZM1500 1000h80V217.52q0-4-4-4h-72q-4 0-4 4ZM1600 1000h80V410.411q0-4-4-4h-72q-4 0-4 4ZM1700 1000h80V104.035q0-4-4-4h-72q-4 0-4 4ZM1800 1000h80V472.699q0-4-4-4h-72q-4 0-4 4ZM1900 1000h80V174.343q0-4-4-4h-72q-4 0-4 4Z" fill="#444cf7"/></svg>