<svg height="auto" viewBox="0 0 2000 1000" xmlns="http://www.w3.org/2000/svg"><path d="M0 1000h80V29.276q0-4-4-4H4q-4 0-4 4ZM100 1000h80V45.795q0-4-4-4h-72q-4 0-4 4ZM200 1000h80V96.45q0-4-4-4h-72q-4 0-4 4ZM300 1000h80V89.781q0-4-4-4h-72q-4 0-4 4ZM400 1000h80V152.453q0-4-4-4h-72q-4 0-4 4ZM500 1000h80V142.523q0-4-4-4h-72q-4 0-4 4ZM600 1000h80V287.88q0-4-4-4h-72q-4 0-4 4ZM700 1000h80V204.837q0-4-4-4h-72q-4 0-4 4ZM800 1000h80V370.434q0-4-4-4h-72q-4 0-4 4ZM900 1000h80V387.293q0-4-4-4h-72q-4 0-4 4ZM1000 1000h80V286.953q0-4-4-4h-72q-4 0-4 4ZM1100 1000h80V468.042q0-4-4-4h-72q-4 0-4 4ZM1200 1000h80V482.931q0-4-4-4h-72q-4 0-4 4ZM1300 1000h80V644.474q0-4-4-4h-72q-4 0-4 4ZM1400 1000h80V615.065q0-4-4-4h-72q-4 0-4 4ZM1500 1000h80V560.81q0-4-4-4h-72q-4 0-4 4ZM1600 1000h80V582.505q0-4-4-4h-72q-4 0-4 4ZM1700 1000h80V818.802q0-4-4-4h-72q-4 0-4 4ZM1800 1000h80V768.507q0-4-4-4h-72q-4 0-4 4ZM1900 1000h80V563.847q0-4-4-4h-72q-4 0-4 4Z" fill="#444cf7"/></svg>