<svg height="auto" viewBox="0 0 2000 1000" xmlns="http://www.w3.org/2000/svg"><path d="M0 987.071c21-3.343 63 .485 105-16.716 42-17.202 63-52.342 105-69.29 42-16.947 63-5.43 105-15.45s63-9.266 105-34.647 63-81.736 105-92.258c42-10.521 63 55.61 105 39.649 42-15.961 63-116.852 105-119.454 42-2.601 63 115.428 105 106.446 42-8.981 63-124.083 105-151.354 42-27.27 63 46.03 105 15 42-31.029 63-123.9 105-170.148 42-46.249 63-92.402 105-61.094s63 220.666 105 217.635c42-3.032 63-178.612 105-232.792 42-54.18 63 1.797 105-38.11s63-114.646 105-161.425c42-46.78 63-109.497 105-72.471 42 37.025 63 200.023 105 257.6 42 57.578 84 24.229 105 30.286l5 581.522H0Z" fill="#444cf71a"/><path d="M0 987.071c21-3.343 63 .485 105-16.716 42-17.202 63-52.342 105-69.29 42-16.947 63-5.43 105-15.45s63-9.266 105-34.647 63-81.736 105-92.258c42-10.521 63 55.61 105 39.649 42-15.961 63-116.852 105-119.454 42-2.601 63 115.428 105 106.446 42-8.981 63-124.083 105-151.354 42-27.27 63 46.03 105 15 42-31.029 63-123.9 105-170.148 42-46.249 63-92.402 105-61.094s63 220.666 105 217.635c42-3.032 63-178.612 105-232.792 42-54.18 63 1.797 105-38.11s63-114.646 105-161.425c42-46.78 63-109.497 105-72.471 42 37.025 63 200.023 105 257.6 42 57.578 84 24.229 105 30.286" fill="none" stroke="#444cf7" stroke-width="4"/><g fill="#444cf7"><circle cy="987.071" r="8"/><circle cx="105" cy="970.355" r="8"/><circle cx="210" cy="901.066" r="8"/><circle cx="315" cy="885.616" r="8"/><circle cx="420" cy="850.968" r="8"/><circle cx="525" cy="758.71" r="8"/><circle cx="630" cy="798.359" r="8"/><circle cx="735" cy="678.905" r="8"/><circle cx="840" cy="785.351" r="8"/><circle cx="945" cy="633.997" r="8"/><circle cx="1050" cy="648.998" r="8"/><circle cx="1155" cy="478.849" r="8"/><circle cx="1260" cy="417.755" r="8"/><circle cx="1365" cy="635.39" r="8"/><circle cx="1470" cy="402.598" r="8"/><circle cx="1575" cy="364.488" r="8"/><circle cx="1680" cy="203.063" r="8"/><circle cx="1785" cy="130.592" r="8"/><circle cx="1890" cy="388.192" r="8"/><circle cx="1995" cy="418.478" r="8"/></g></svg>