<svg height="auto" viewBox="0 0 2000 1000" xmlns="http://www.w3.org/2000/svg"><path d="M0 993.21c21-7 63-15.37 105-34.999 42-19.627 63-53.05 105-63.14 42-10.09 63 32.152 105 12.691 42-19.46 63-75.83 105-109.995 42-34.165 63-41.934 105-60.832 42-18.898 63-30.176 105-33.658 42-3.483 63 19.507 105 16.246 42-3.262 63 6.276 105-32.555 42-38.83 63-148.427 105-161.597 42-13.17 63 112.705 105 95.745 42-16.96 63-143.977 105-180.547 42-36.57 63-25.054 105-2.303 42 22.752 63 84.995 105 116.06 42 31.066 63 80.592 105 39.27 42-41.323 63-176.733 105-245.881 42-69.147 63-77.181 105-99.857 42-22.676 63-21.402 105-13.523 42 7.879 63 14.439 105 52.917s84 111.578 105 139.473l5 573.275H0Z" fill="#444cf71a"/><path d="M0 993.21c21-7 63-15.37 105-34.999 42-19.627 63-53.05 105-63.14 42-10.09 63 32.152 105 12.691 42-19.46 63-75.83 105-109.995 42-34.165 63-41.934 105-60.832 42-18.898 63-30.176 105-33.658 42-3.483 63 19.507 105 16.246 42-3.262 63 6.276 105-32.555 42-38.83 63-148.427 105-161.597 42-13.17 63 112.705 105 95.745 42-16.96 63-143.977 105-180.547 42-36.57 63-25.054 105-2.303 42 22.752 63 84.995 105 116.06 42 31.066 63 80.592 105 39.27 42-41.323 63-176.733 105-245.881 42-69.147 63-77.181 105-99.857 42-22.676 63-21.402 105-13.523 42 7.879 63 14.439 105 52.917s84 111.578 105 139.473" fill="none" stroke="#444cf7" stroke-width="4"/><g fill="#444cf7"><circle cy="993.21" r="8"/><circle cx="105" cy="958.211" r="8"/><circle cx="210" cy="895.072" r="8"/><circle cx="315" cy="907.762" r="8"/><circle cx="420" cy="797.767" r="8"/><circle cx="525" cy="736.935" r="8"/><circle cx="630" cy="703.277" r="8"/><circle cx="735" cy="719.523" r="8"/><circle cx="840" cy="686.968" r="8"/><circle cx="945" cy="525.371" r="8"/><circle cx="1050" cy="621.116" r="8"/><circle cx="1155" cy="440.569" r="8"/><circle cx="1260" cy="438.266" r="8"/><circle cx="1365" cy="554.327" r="8"/><circle cx="1470" cy="593.596" r="8"/><circle cx="1575" cy="347.715" r="8"/><circle cx="1680" cy="247.858" r="8"/><circle cx="1785" cy="234.335" r="8"/><circle cx="1890" cy="287.252" r="8"/><circle cx="1995" cy="426.725" r="8"/></g></svg>