<svg height="auto" viewBox="0 0 2000 1000" xmlns="http://www.w3.org/2000/svg"><path d="M0 317.079c21 28.586 63 149.113 105 142.93 42-6.182 63-214.447 105-173.843 42 40.604 63 393.603 105 376.863 42-16.74 63-374.935 105-460.564 42-85.629 63 30.846 105 32.42 42 1.572 63-135.602 105-24.555 42 111.048 63 494.629 105 579.791 42 85.163 63-35.29 105-153.977 42-118.688 63-398.842 105-439.461 42-40.62 63 187.22 105 236.365 42 49.144 63 40.594 105 9.356s63-109.498 105-165.546c42-56.05 63-183.786 105-114.698 42 69.088 63 395.02 105 460.137 42 65.119 63-114.637 105-134.546 42-19.91 63 81.11 105 34.999 42-46.112 63-209.23 105-265.556 42-56.326 63 7.352 105-16.077 42-23.428 84-80.852 105-101.065l5 859.948H0Z" fill="#444cf71a"/><path d="M0 317.079c21 28.586 63 149.113 105 142.93 42-6.182 63-214.447 105-173.843 42 40.604 63 393.603 105 376.863 42-16.74 63-374.935 105-460.564 42-85.629 63 30.846 105 32.42 42 1.572 63-135.602 105-24.555 42 111.048 63 494.629 105 579.791 42 85.163 63-35.29 105-153.977 42-118.688 63-398.842 105-439.461 42-40.62 63 187.22 105 236.365 42 49.144 63 40.594 105 9.356s63-109.498 105-165.546c42-56.05 63-183.786 105-114.698 42 69.088 63 395.02 105 460.137 42 65.119 63-114.637 105-134.546 42-19.91 63 81.11 105 34.999 42-46.112 63-209.23 105-265.556 42-56.326 63 7.352 105-16.077 42-23.428 84-80.852 105-101.065" fill="none" stroke="#444cf7" stroke-width="4"/><g fill="#444cf7"><circle cy="317.079" r="8"/><circle cx="105" cy="460.009" r="8"/><circle cx="210" cy="286.166" r="8"/><circle cx="315" cy="663.029" r="8"/><circle cx="420" cy="202.465" r="8"/><circle cx="525" cy="234.884" r="8"/><circle cx="630" cy="210.33" r="8"/><circle cx="735" cy="790.121" r="8"/><circle cx="840" cy="636.144" r="8"/><circle cx="945" cy="196.683" r="8"/><circle cx="1050" cy="433.048" r="8"/><circle cx="1155" cy="442.404" r="8"/><circle cx="1260" cy="276.858" r="8"/><circle cx="1365" cy="162.16" r="8"/><circle cx="1470" cy="622.297" r="8"/><circle cx="1575" cy="487.751" r="8"/><circle cx="1680" cy="522.75" r="8"/><circle cx="1785" cy="257.194" r="8"/><circle cx="1890" cy="241.117" r="8"/><circle cx="1995" cy="140.052" r="8"/></g></svg>