<svg height="auto" viewBox="0 0 2000 1000" xmlns="http://www.w3.org/2000/svg"><path d="M0 194.733c21 119.16 63 608.079 105 595.8 42-12.28 63-527.841 105-657.196 42-129.356 63-29.805 105 10.418s63 144.064 105 190.698c42 46.633 63 67.916 105 42.47 42-25.445 63-162.088 105-169.698 42-7.61 63 79.06 105 131.645 42 52.585 63 139.329 105 131.281 42-8.047 63-227.463 105-171.516 42 55.946 63 444.931 105 451.248 42 6.317 63-365.544 105-419.663 42-54.12 63 157.778 105 149.066 42-8.712 63-186.184 105-192.627 42-6.444 63 71.04 105 160.41 42 89.368 63 322.864 105 286.435 42-36.428 63-388.133 105-468.58s63-32.194 105 66.345c42 98.54 63 373.804 105 426.35 42 52.545 84-130.898 105-163.622l5 406.003H0Z" fill="#444cf71a"/><path d="M0 194.733c21 119.16 63 608.079 105 595.8 42-12.28 63-527.841 105-657.196 42-129.356 63-29.805 105 10.418s63 144.064 105 190.698c42 46.633 63 67.916 105 42.47 42-25.445 63-162.088 105-169.698 42-7.61 63 79.06 105 131.645 42 52.585 63 139.329 105 131.281 42-8.047 63-227.463 105-171.516 42 55.946 63 444.931 105 451.248 42 6.317 63-365.544 105-419.663 42-54.12 63 157.778 105 149.066 42-8.712 63-186.184 105-192.627 42-6.444 63 71.04 105 160.41 42 89.368 63 322.864 105 286.435 42-36.428 63-388.133 105-468.58s63-32.194 105 66.345c42 98.54 63 373.804 105 426.35 42 52.545 84-130.898 105-163.622" fill="none" stroke="#444cf7" stroke-width="4"/><g fill="#444cf7"><circle cy="194.733" r="8"/><circle cx="105" cy="790.532" r="8"/><circle cx="210" cy="133.337" r="8"/><circle cx="315" cy="143.755" r="8"/><circle cx="420" cy="334.453" r="8"/><circle cx="525" cy="376.923" r="8"/><circle cx="630" cy="207.225" r="8"/><circle cx="735" cy="338.87" r="8"/><circle cx="840" cy="470.151" r="8"/><circle cx="945" cy="298.635" r="8"/><circle cx="1050" cy="749.883" r="8"/><circle cx="1155" cy="330.22" r="8"/><circle cx="1260" cy="479.286" r="8"/><circle cx="1365" cy="286.659" r="8"/><circle cx="1470" cy="447.068" r="8"/><circle cx="1575" cy="733.504" r="8"/><circle cx="1680" cy="264.924" r="8"/><circle cx="1785" cy="331.269" r="8"/><circle cx="1890" cy="757.619" r="8"/><circle cx="1995" cy="593.997" r="8"/></g></svg>