<svg width="20" height="21" viewBox="0 0 20 21" fill="none" xmlns="http://www.w3.org/2000/svg">
<path fill-rule="evenodd" clip-rule="evenodd" d="M15.3734 15.4591C18.524 11.9925 18.4254 6.62604 15.0777 3.27834C11.6285 -0.170903 6.03617 -0.170903 2.58693 3.27834C-0.86231 6.72757 -0.86231 12.3199 2.58693 15.7691C5.88269 19.0649 11.1351 19.2115 14.6049 16.2091L18.9934 20.5976C19.2031 20.8072 19.543 20.8072 19.7527 20.5976C19.9623 20.3879 19.9623 20.048 19.7527 19.8384L15.3734 15.4591ZM14.3185 4.03756C17.3484 7.06749 17.3484 11.98 14.3185 15.0099C11.2886 18.0398 6.37608 18.0398 3.34615 15.0099C0.316217 11.98 0.316217 7.06749 3.34615 4.03756C6.37608 1.00762 11.2886 1.00762 14.3185 4.03756Z" fill="white"/>
</svg>
